<?xml version="1.0" standalone="no"?>
<!DOCTYPE svg PUBLIC "-//W3C//DTD SVG 20010904//EN"
 "http://www.w3.org/TR/2001/REC-SVG-20010904/DTD/svg10.dtd">
<svg version="1.0" xmlns="http://www.w3.org/2000/svg"
 width="260.000000pt" height="260.000000pt" viewBox="0 0 260.000000 260.000000"
 preserveAspectRatio="xMidYMid meet">
<metadata>
Created by potrace 1.14, written by Peter Selinger 2001-2017
</metadata>
<g transform="translate(0.000000,260.000000) scale(0.100000,-0.100000)"
fill="#000000" stroke="none">
<path d="M243 2549 c-75 -29 -153 -104 -189 -181 l-29 -63 0 -1005 c0 -951 1
-1008 18 -1058 27 -75 108 -161 189 -198 l63 -29 1005 0 1005 0 56 23 c76 30
138 87 180 164 l34 63 0 1025 0 1025 -26 56 c-33 69 -91 129 -161 166 l-53 28
-1020 2 c-1003 2 -1021 2 -1072 -18z m1282 -99 c175 -47 323 -135 460 -275
147 -150 245 -331 286 -529 21 -102 25 -291 9 -393 -25 -152 -94 -337 -175
-472 -49 -81 -143 -202 -161 -208 -6 -2 -19 8 -28 22 -17 26 -17 27 11 62 151
191 243 391 278 603 27 167 16 309 -36 465 -128 384 -459 655 -821 673 -60 2
-108 8 -108 12 0 4 -3 22 -7 40 l-6 33 109 -6 c60 -3 145 -16 189 -27z m-411
-27 c17 -113 26 -204 22 -212 -3 -5 -21 -12 -40 -15 -86 -16 -286 -144 -330
-211 -15 -22 -14 -24 20 -50 l34 -26 61 54 c55 50 137 102 201 126 26 10 26 9
53 -74 l26 -83 37 10 c20 6 78 8 128 6 81 -3 100 -8 165 -40 41 -20 92 -53
115 -72 l41 -35 32 33 32 33 -49 45 c-91 82 -227 138 -333 138 -53 0 -50 -6
-64 135 -4 33 -9 72 -11 88 l-6 27 79 0 c44 0 115 -9 163 -20 83 -20 230 -83
230 -99 0 -4 -11 -18 -25 -31 l-25 -23 -67 31 c-70 32 -162 59 -223 64 l-35 3
-3 -47 -3 -47 38 -6 c80 -13 197 -57 263 -100 l69 -44 51 65 c29 35 55 64 60
64 13 0 98 -98 143 -164 58 -86 114 -211 139 -312 27 -111 29 -309 4 -423 -9
-41 -18 -77 -20 -79 -2 -2 -18 4 -36 13 -27 14 -31 20 -25 43 64 252 6 542
-150 751 l-48 65 -28 -35 c-34 -41 -35 -50 -9 -74 11 -10 20 -24 20 -31 0 -7
-43 -44 -96 -82 l-95 -70 -48 48 c-155 154 -370 156 -531 4 l-68 -65 -31 19
-31 19 35 44 c19 24 59 62 90 84 57 41 57 40 34 103 -5 12 -13 22 -18 22 -17
0 -127 -87 -165 -131 -20 -24 -54 -71 -73 -104 -20 -33 -37 -61 -38 -62 0 -1
-18 3 -38 9 l-37 11 35 64 c19 35 35 67 35 71 0 4 -29 27 -65 52 -35 25 -64
48 -65 52 -1 15 84 111 140 157 67 56 176 122 233 142 35 12 37 15 37 56 0 30
-5 45 -15 49 -24 9 -213 -88 -294 -151 -40 -32 -97 -87 -127 -124 -67 -80
-155 -254 -188 -373 -33 -116 -48 -288 -35 -412 23 -223 129 -466 272 -623
l50 -54 -17 -36 -17 -36 -31 29 c-99 93 -221 303 -276 474 -168 529 8 1040
449 1301 62 37 244 109 276 109 6 0 14 -17 17 -37z m-501 -596 l28 -22 -21
-47 c-51 -117 -78 -293 -66 -430 10 -97 13 -102 63 -89 l39 11 -9 75 c-5 42
-7 78 -4 81 2 3 20 1 38 -4 33 -8 34 -9 41 -77 8 -86 22 -142 55 -223 l25 -64
-23 -24 c-12 -13 -26 -24 -30 -24 -9 0 -69 143 -69 164 0 20 -15 20 -96 0 -36
-9 -67 -14 -70 -12 -2 3 -11 40 -19 82 -20 103 -19 296 1 394 16 80 70 232 82
232 4 0 20 -10 35 -23z m1147 -244 c0 -23 18 -22 91 2 40 14 74 25 75 25 3 0
24 -63 22 -66 -2 -1 -39 -13 -82 -26 l-79 -24 2 -85 c2 -93 -23 -229 -42 -229
-7 0 -20 7 -30 14 -17 13 -17 20 -6 75 15 77 7 230 -15 291 l-16 45 27 24 27
24 13 -29 c7 -16 12 -34 13 -41z m-850 8 c0 -3 -7 -40 -16 -81 -15 -72 -14
-184 2 -277 5 -28 3 -34 -20 -44 -14 -7 -28 -10 -30 -8 -14 14 -38 181 -34
239 l5 66 -82 24 -83 23 9 30 c5 16 10 31 11 32 2 1 38 -8 81 -20 71 -21 79
-21 84 -6 18 60 21 63 48 45 14 -9 25 -19 25 -23z m600 -18 c0 -7 -10 -13 -22
-13 -42 0 -100 -21 -124 -45 -24 -24 -24 -24 -24 -273 0 -298 -2 -312 -41
-312 l-29 0 0 268 c0 192 -4 274 -13 291 -19 38 -58 61 -115 68 -28 3 -52 11
-52 17 0 8 63 11 210 11 161 0 210 -3 210 -12z m447 -235 c-4 -46 -14 -110
-23 -143 -30 -110 -33 -99 40 -140 36 -20 66 -43 66 -50 0 -46 -132 -244 -219
-330 -28 -27 -51 -53 -51 -58 0 -5 18 -35 41 -67 23 -33 38 -64 34 -70 -16
-26 -162 -111 -241 -142 l-84 -31 0 -49 c0 -48 0 -48 28 -42 116 28 271 122
411 249 l84 76 25 -24 c23 -23 23 -26 8 -50 -22 -32 -115 -113 -196 -170 -114
-79 -281 -152 -392 -171 l-38 -7 0 125 0 124 72 22 c100 30 229 97 228 118 -1
4 -11 20 -25 36 l-23 29 -69 -35 c-53 -28 -159 -68 -180 -68 -2 0 -3 58 -3
128 l0 128 35 13 c20 7 65 32 100 56 l65 43 21 -29 21 -29 -24 -20 c-12 -10
-51 -36 -85 -56 l-63 -37 0 -48 c0 -27 3 -49 6 -49 3 0 38 17 76 37 116 61
268 217 331 340 l17 31 -38 22 c-34 21 -37 21 -47 5 -47 -81 -87 -136 -96
-133 -6 2 -18 15 -26 29 -15 25 -14 28 21 80 20 30 50 89 66 131 26 68 37 115
56 256 4 22 12 36 27 42 48 19 50 16 44 -72z m-978 -282 c33 -53 117 -125 179
-154 47 -22 71 -26 142 -27 76 0 92 3 151 32 62 31 158 117 186 167 10 19 12
19 38 2 26 -17 26 -18 9 -44 -77 -121 -183 -195 -326 -226 l-28 -6 0 -345 0
-345 -30 0 -30 0 0 345 0 345 -27 6 c-130 28 -239 102 -314 210 l-29 42 23 15
c31 22 33 21 56 -17z m-330 -65 c12 -27 40 -78 63 -112 l41 -64 54 62 54 61
74 -73 c50 -50 95 -84 142 -106 37 -18 69 -33 69 -33 1 -1 4 -18 8 -38 6 -32
4 -38 -10 -38 -32 0 -159 69 -219 120 l-60 49 -30 -29 -29 -30 29 -31 c52 -55
156 -122 239 -156 78 -31 81 -33 84 -68 2 -20 -1 -35 -8 -35 -24 0 -138 43
-187 71 -29 16 -55 29 -57 29 -2 0 -14 -17 -26 -37 -21 -36 -21 -38 -3 -51 35
-26 158 -81 221 -98 l62 -17 0 -124 c0 -95 -3 -123 -13 -123 -7 0 -49 9 -93
20 -164 43 -367 164 -494 294 l-54 56 26 27 27 26 64 -60 c134 -125 251 -202
375 -247 40 -14 77 -26 83 -26 5 0 9 22 9 48 0 49 0 49 -42 61 -62 19 -159 67
-227 112 l-60 40 41 75 40 75 -46 40 c-64 57 -157 183 -206 281 l-41 83 23 6
c46 14 54 9 77 -40z"/>
</g>
</svg>
